<svg width="129" height="119" viewBox="0 0 129 119" fill="none" xmlns="http://www.w3.org/2000/svg">
<path fill-rule="evenodd" clip-rule="evenodd" d="M63 -0.25C6.75 -0.25 6.75 37.25 6.75 37.25H119.25C119.25 37.25 119.25 -0.25 63 -0.25ZM6.75 87.25H71.4375C70.0625 91.1875 69.25 95.375 69.25 99.75C69.25 104.125 70.0625 108.312 71.4375 112.25H25.5C15.125 112.25 6.75 103.875 6.75 93.5V87.25ZM125.409 60.8502C125.637 62.8718 125.368 64.9184 124.625 66.8125C119.25 63.875 113.25 62.25 106.75 62.25C95.6875 62.25 85.75 67.125 78.875 74.75H13C6.125 74.75 0.5 69.125 0.5 62.25C0.5 55.375 6.125 49.75 13 49.75H25.5L41.125 62.25L56.75 49.75H113C115.034 49.752 117.038 50.2506 118.836 51.2024C120.634 52.1542 122.172 53.5305 123.318 55.2118C124.463 56.8931 125.181 58.8285 125.409 60.8502Z" fill="#FFD64F"/>
<path d="M121.375 80L98.9375 102.438L89 92.5L81.75 99.75L98.9375 118.5L128.625 88.8125L121.375 80Z" fill="#FFD64F"/>
</svg>
