<svg width="200" height="167" viewBox="0 0 200 167" fill="none" xmlns="http://www.w3.org/2000/svg">
<path d="M33.3333 33.4H50V133.6H33.3333V33.4ZM58.3333 33.4H66.6667V133.6H58.3333V33.4ZM75 33.4H100V133.6H75V33.4ZM108.333 33.4H116.667V133.6H108.333V33.4ZM133.333 33.4H150V133.6H133.333V33.4ZM158.333 33.4H166.667V133.6H158.333V33.4ZM16.6667 16.7V50.1H0V16.7C0 12.2709 1.75595 8.02317 4.88155 4.89132C8.00716 1.75946 12.2464 0 16.6667 0H50V16.7H16.6667ZM183.333 0C187.754 0 191.993 1.75946 195.118 4.89132C198.244 8.02317 200 12.2709 200 16.7V50.1H183.333V16.7H150V0H183.333ZM16.6667 116.9V150.3H50V167H16.6667C12.2464 167 8.00716 165.241 4.88155 162.109C1.75595 158.977 0 154.729 0 150.3V116.9H16.6667ZM183.333 150.3V116.9H200V150.3C200 154.729 198.244 158.977 195.118 162.109C191.993 165.241 187.754 167 183.333 167H150V150.3H183.333Z" fill="#121212" fill-opacity="0.5"/>
</svg>
