<svg width="200" height="200" viewBox="0 0 200 200" fill="none" xmlns="http://www.w3.org/2000/svg">
<path d="M185.917 6.50061H15.478L6.98389 12.163V194.493H194.41V17.8254L185.917 6.50061Z" fill="#FFEBD2" fill-opacity="0.3" stroke="black"/>
<path d="M168.791 29.6801H30.9941V74.9831H168.791V29.6801Z" fill="white" stroke="black"/>
<path d="M5.85938 200H194.141C197.377 200 200 197.377 200 194.141V17.5781C200 7.88555 192.114 0 182.422 0H17.5781C7.88555 0 0 7.88555 0 17.5781V194.141C0 197.377 2.62344 200 5.85938 200ZM11.7188 17.5781C11.7188 14.3473 14.3473 11.7188 17.5781 11.7188H182.422C185.653 11.7188 188.281 14.3473 188.281 17.5781V188.281H11.7188V17.5781Z" fill="#FFD64F"/>
<path d="M170.703 23.4377H29.2964C26.0604 23.4377 23.437 26.0612 23.437 29.2971V76.9534C23.437 80.1893 26.0604 82.8127 29.2964 82.8127H170.703C173.939 82.8127 176.562 80.1893 176.562 76.9534V29.2971C176.562 26.0612 173.939 23.4377 170.703 23.4377ZM164.843 71.094H35.1558V35.1565H164.843V71.094Z" fill="#FFD64F"/>
<path d="M100.39 94.5312C91.7222 94.5312 38.4007 94.5312 29.2964 94.5312C26.0604 94.5312 23.437 97.1547 23.437 100.391C23.437 103.627 26.0604 106.25 29.2964 106.25H35.1558V158.984C35.1558 162.22 37.7792 164.844 41.0151 164.844H88.6714C91.9073 164.844 94.5308 162.22 94.5308 158.984V106.25H100.39C103.626 106.25 106.25 103.627 106.25 100.391C106.25 97.1547 103.626 94.5312 100.39 94.5312ZM82.812 153.125H46.8745V106.25H82.812V153.125Z" fill="#FFD64F"/>
<path d="M123.828 129.688C127.064 129.688 129.688 127.064 129.688 123.828C129.688 120.592 127.064 117.969 123.828 117.969C120.592 117.969 117.969 120.592 117.969 123.828C117.969 127.064 120.592 129.688 123.828 129.688Z" fill="#FFD64F"/>
<path d="M147.266 129.688C150.502 129.688 153.125 127.064 153.125 123.828C153.125 120.592 150.502 117.969 147.266 117.969C144.03 117.969 141.406 120.592 141.406 123.828C141.406 127.064 144.03 129.688 147.266 129.688Z" fill="#FFD64F"/>
<path d="M170.703 129.688C173.939 129.688 176.562 127.064 176.562 123.828C176.562 120.592 173.939 117.969 170.703 117.969C167.467 117.969 164.843 120.592 164.843 123.828C164.843 127.064 167.467 129.688 170.703 129.688Z" fill="#FFD64F"/>
<path d="M123.828 153.125C127.064 153.125 129.688 150.501 129.688 147.265C129.688 144.029 127.064 141.406 123.828 141.406C120.592 141.406 117.969 144.029 117.969 147.265C117.969 150.501 120.592 153.125 123.828 153.125Z" fill="#FFD64F"/>
<path d="M147.266 153.125C150.502 153.125 153.125 150.501 153.125 147.265C153.125 144.029 150.502 141.406 147.266 141.406C144.03 141.406 141.406 144.029 141.406 147.265C141.406 150.501 144.03 153.125 147.266 153.125Z" fill="#FFD64F"/>
<path d="M170.703 153.125C173.939 153.125 176.562 150.501 176.562 147.265C176.562 144.029 173.939 141.406 170.703 141.406C167.467 141.406 164.843 144.029 164.843 147.265C164.843 150.501 167.467 153.125 170.703 153.125Z" fill="#FFD64F"/>
<path d="M123.828 176.562C127.064 176.562 129.688 173.939 129.688 170.703C129.688 167.467 127.064 164.844 123.828 164.844C120.592 164.844 117.969 167.467 117.969 170.703C117.969 173.939 120.592 176.562 123.828 176.562Z" fill="#FFD64F"/>
<path d="M147.266 176.562C150.502 176.562 153.125 173.939 153.125 170.703C153.125 167.467 150.502 164.844 147.266 164.844C144.03 164.844 141.406 167.467 141.406 170.703C141.406 173.939 144.03 176.562 147.266 176.562Z" fill="#FFD64F"/>
<path d="M170.703 176.562C173.939 176.562 176.562 173.939 176.562 170.703C176.562 167.467 173.939 164.844 170.703 164.844C167.467 164.844 164.843 167.467 164.843 170.703C164.843 173.939 167.467 176.562 170.703 176.562Z" fill="#FFD64F"/>
<path d="M170.703 94.5312H123.828C120.592 94.5312 117.969 97.1547 117.969 100.391C117.969 103.627 120.592 106.25 123.828 106.25H170.703C173.939 106.25 176.562 103.627 176.562 100.391C176.562 97.1547 173.939 94.5312 170.703 94.5312Z" fill="#FFD64F"/>
</svg>
