<svg width="75" height="77" viewBox="0 0 75 77" fill="none" xmlns="http://www.w3.org/2000/svg">
<path d="M1.53732 39.3689C2.15896 36.6752 5.26708 23.8282 7.23559 19.8912C5.0599 18.5443 3.40219 15.8506 3.81661 13.4677C4.14814 11.5614 6.23407 10.7394 7.23559 10.5667H23.916L25.1592 8.59825L35.9342 3.72881H63.7003V3.21079V1.13867H73.3355V17.301H68.4661H63.7003L62.5606 14.0893H60.7993H58.8308L58.2092 15.8506L55.9299 18.6479L51.3713 21.238L56.8624 39.3689V76.1487L1.53732 75.4234L0.604858 65.6846C0.708463 57.8106 1.04 41.5239 1.53732 39.3689Z" fill="#F7E1CD"/>
<path d="M25.25 50.5466C24.843 44.9849 28.4152 41.051 30.2521 39.7793H32.7956C33.0217 47.1271 33.4738 61.9583 33.4738 62.5009C33.4738 63.0435 33.0217 64.5357 32.7956 65.2139L32.0325 66.8248L30.2521 67.2487L28.5565 66.8248L26.776 65.7226V53.2597L25.25 52.4118V50.5466Z" fill="white"/>
<path d="M12.977 50.6987C12.5701 45.137 12.0493 44.6737 16.3034 44.2344L19.5949 45.6779C19.821 53.0257 20.2731 61.9583 20.2731 62.5009C20.2731 63.0435 19.821 64.5357 19.5949 65.2139L18.8318 66.8248L17.0514 67.2487L15.3558 66.8248L12.977 65.6358L13.5754 53.2597L12.5377 52.456L12.977 50.6987Z" fill="white"/>
<path d="M33.5323 54.5831V39.7419C33.5323 39.4126 33.4014 39.0967 33.1685 38.8638C32.9356 38.6308 32.6197 38.5 32.2904 38.5C24.7052 38.5 23.6418 51.5144 23.6002 52.0681C23.5818 52.3139 23.6369 52.5596 23.7585 52.774C23.8802 52.9884 24.0628 53.1617 24.2833 53.2719L26.0807 54.1707V54.5837L25.1182 64.2099C25.0664 64.7279 25.1237 65.2509 25.2864 65.7454C25.4491 66.2398 25.7137 66.6947 26.0629 67.0806C26.4122 67.4666 26.8385 67.7751 27.3143 67.9862C27.7901 68.1973 28.3048 68.3064 28.8254 68.3065H30.7876C31.3081 68.3064 31.8229 68.1973 32.2987 67.9862C32.7745 67.7751 33.2007 67.4666 33.55 67.0806C33.8993 66.6947 34.1638 66.2398 34.3265 65.7454C34.4893 65.2509 34.5466 64.7279 34.4948 64.2099L33.5323 54.5831ZM26.1659 51.4363C26.3812 49.6948 26.7641 47.9782 27.3093 46.3104C28.2637 43.5019 29.5177 41.7928 31.0484 41.2102V53.4032H28.5645C28.5645 53.1726 28.5003 52.9465 28.3791 52.7503C28.2578 52.5542 28.0843 52.3956 27.8781 52.2925L26.1659 51.4363ZM31.708 65.414C31.5922 65.5433 31.4503 65.6465 31.2916 65.717C31.133 65.7874 30.9612 65.8234 30.7876 65.8226H28.8254C28.6518 65.8226 28.4801 65.7862 28.3215 65.7158C28.1628 65.6454 28.0206 65.5425 27.9042 65.4138C27.7877 65.2851 27.6996 65.1334 27.6454 64.9685C27.5912 64.8036 27.5721 64.6292 27.5895 64.4565L28.4466 55.8871H31.1664L32.0235 64.4565C32.0417 64.6293 32.0231 64.804 31.9688 64.969C31.9145 65.1341 31.8258 65.2858 31.7085 65.414H31.708Z" fill="#DF843E"/>
<path d="M73.2742 0H63.3387C63.0093 0 62.6934 0.130846 62.4605 0.363754C62.2276 0.596663 62.0968 0.912554 62.0968 1.24194V2.48387H36.1686C35.0458 2.48466 33.9411 2.76633 32.9551 3.30324L20.7961 9.93548H6.20968C4.12043 9.93548 2.48387 12.1176 2.48387 14.9032C2.48387 17.5032 3.90977 19.576 5.79844 19.8416L0.199176 38.7967C0.194208 38.8136 0.189551 38.8307 0.185204 38.8476C0.062263 39.3401 6.59025e-05 39.8458 0 40.3534V75.7581C0 76.0874 0.130846 76.4033 0.363754 76.6362C0.596662 76.8692 0.912554 77 1.24194 77H57.129C57.4584 77 57.7743 76.8692 58.0072 76.6362C58.2401 76.4033 58.371 76.0874 58.371 75.7581V40.4573C58.3711 39.8642 58.2861 39.2741 58.1185 38.7051L52.944 21.1118C54.6291 21.0995 56.2481 20.4544 57.4799 19.3044C58.7117 18.1544 59.4664 16.5835 59.5944 14.9032H62.0968V17.3871C62.0968 17.7165 62.2276 18.0324 62.4605 18.2653C62.6934 18.4982 63.0093 18.629 63.3387 18.629H73.2742C73.6036 18.629 73.9195 18.4982 74.1524 18.2653C74.3853 18.0324 74.5161 17.7165 74.5161 17.3871V1.24194C74.5161 0.912554 74.3853 0.596663 74.1524 0.363754C73.9195 0.130846 73.6036 0 73.2742 0ZM4.96774 14.9032C4.96774 13.387 5.70328 12.4194 6.20968 12.4194H41.7115L36.7437 17.3871H6.20968C5.70328 17.3871 4.96774 16.4195 4.96774 14.9032ZM43.6529 38.8477C43.53 39.3403 43.4678 39.846 43.4677 40.3536V74.5161H2.48387V40.3534C2.48399 40.057 2.51937 39.7616 2.58928 39.4735L8.37965 19.871H34.4968C33.8484 20.9663 33.6023 22.2535 33.8007 23.5108C33.9991 24.7681 34.6297 25.9169 35.5839 26.7593C36.538 27.6018 37.756 28.0853 39.0282 28.1265C40.3004 28.1677 41.5472 27.7641 42.5538 26.9851L48.5286 22.3376L43.6669 38.7968C43.6619 38.8137 43.6573 38.8308 43.6529 38.8477ZM50.9193 71.3048L54.1307 74.5161H47.708L50.9193 71.3048ZM55.7357 39.4065C55.8362 39.7477 55.8872 40.1016 55.8871 40.4573V72.7597L52.1613 69.0339V42.2258C52.1613 41.8964 52.0304 41.5805 51.7975 41.3476C51.5646 41.1147 51.2487 40.9839 50.9193 40.9839C50.59 40.9839 50.2741 41.1147 50.0412 41.3476C49.8083 41.5805 49.6774 41.8964 49.6774 42.2258V69.0341L45.9516 72.7599V40.3534C45.9517 40.057 45.9871 39.7616 46.057 39.4735L50.9161 23.0216L55.7357 39.4065ZM62.0968 12.4194H59.1119C58.5862 12.42 58.0822 12.6291 57.7105 13.0008C57.3388 13.3725 57.1296 13.8766 57.129 14.4023C57.1278 15.5229 56.682 16.5972 55.8896 17.3896C55.0972 18.182 54.0229 18.6278 52.9023 18.629H49.8493C49.4618 18.6297 49.0856 18.7588 48.7793 18.9962L41.0286 25.025C40.4291 25.4917 39.6742 25.7123 38.9178 25.6417C38.1614 25.5711 37.4603 25.2148 36.9575 24.6453C36.4547 24.0757 36.188 23.3359 36.2118 22.5766C36.2356 21.8172 36.548 21.0955 37.0854 20.5585L45.5877 12.0561C45.7616 11.8824 45.88 11.6611 45.928 11.4201C45.976 11.1791 45.9515 10.9293 45.8575 10.7023C45.7635 10.4753 45.6043 10.2812 45.3999 10.1447C45.1956 10.0082 44.9554 9.93541 44.7097 9.93548H25.9835L34.1447 5.48377C34.7657 5.14561 35.4615 4.96822 36.1686 4.96774H62.0968V12.4194ZM72.0322 16.1452H64.5806V2.48387H72.0322V16.1452Z" fill="#DF843E"/>
<path d="M22.3549 39.7419C22.3549 39.4126 22.2241 39.0967 21.9911 38.8638C21.7582 38.6308 21.4423 38.5 21.113 38.5C20.7836 38.5 20.4677 38.6308 20.2348 38.8638C20.0019 39.0967 19.871 39.4126 19.871 39.7419V43.4677H17.3872V39.7419C17.3872 39.4126 17.2563 39.0967 17.0234 38.8638C16.7905 38.6308 16.4746 38.5 16.1452 38.5C15.8158 38.5 15.5 38.6308 15.267 38.8638C15.0341 39.0967 14.9033 39.4126 14.9033 39.7419V43.4677H12.4194V39.7419C12.4194 39.4126 12.2886 39.0967 12.0557 38.8638C11.8228 38.6308 11.5069 38.5 11.1775 38.5C10.8481 38.5 10.5322 38.6308 10.2993 38.8638C10.0664 39.0967 9.93555 39.4126 9.93555 39.7419V44.7097H9.93788C9.93702 44.9023 9.98114 45.0925 10.0667 45.2651L12.3983 49.9284L11.3708 64.3152C11.3343 64.8255 11.4034 65.3379 11.5736 65.8204C11.7439 66.3029 12.0117 66.7451 12.3603 67.1196C12.709 67.4941 13.131 67.7927 13.6002 67.9969C14.0693 68.2011 14.5754 68.3065 15.0871 68.3065H17.2034C17.715 68.3065 18.2212 68.2011 18.6903 67.9969C19.1594 67.7927 19.5815 67.4941 19.9301 67.1196C20.2788 66.7451 20.5466 66.3029 20.7168 65.8204C20.8871 65.3379 20.9561 64.8255 20.9197 64.3152L19.8921 49.9284L22.2237 45.2651C22.3093 45.0925 22.3534 44.9023 22.3526 44.7097H22.3549V39.7419ZM19.1035 45.9516L17.8616 48.4355H14.4289L13.1869 45.9516H19.1035ZM18.1125 65.4269C17.9967 65.5523 17.8561 65.6523 17.6996 65.7204C17.543 65.7886 17.3741 65.8234 17.2034 65.8226H15.0871C14.9166 65.8226 14.7478 65.7875 14.5915 65.7194C14.4351 65.6514 14.2944 65.5518 14.1782 65.427C14.062 65.3022 13.9727 65.1548 13.9159 64.994C13.8592 64.8332 13.8361 64.6624 13.8483 64.4923L14.8178 50.9194H17.4724L18.4419 64.4923C18.4548 64.6624 18.4322 64.8334 18.3755 64.9943C18.3188 65.1551 18.2292 65.3025 18.1125 65.4269Z" fill="#DF843E"/>
</svg>
