<svg width="129" height="93" viewBox="0 0 129 93" fill="none" xmlns="http://www.w3.org/2000/svg">
<path d="M9.36951 42.1933L3.73108 41.7332L4.60944 40.1785L7.93732 40.3947L7.97818 40.3223C7.82394 40.1076 7.66795 39.8865 7.51022 39.6592C7.35249 39.4318 7.19302 39.1982 7.0318 38.9583L6.07338 37.5874L6.94493 36.0448L10.2122 40.7298L13.933 42.8396L13.1023 44.3099L9.36951 42.1933Z" fill="#3B2A08"/>
<path d="M19.1588 30.9125C19.452 31.1517 19.6836 31.43 19.8537 31.7474C20.0238 32.0649 20.1268 32.399 20.1627 32.7498C20.1986 33.1007 20.1689 33.4517 20.0738 33.8028C19.9715 34.1481 19.801 34.4675 19.5623 34.7611L18.89 35.5881C18.6513 35.8817 18.3736 36.1136 18.0567 36.2839C17.7328 36.4483 17.3928 36.552 17.0367 36.595C16.6865 36.6308 16.3361 36.601 15.9856 36.5056C15.6408 36.403 15.3219 36.2321 15.0287 35.9929L9.84841 31.7663L10.9224 30.4452L16.0277 34.6105C16.1564 34.7155 16.2954 34.7932 16.4447 34.8436C16.5927 34.881 16.7416 34.8953 16.8915 34.8865C17.0471 34.8706 17.1936 34.8294 17.331 34.7628C17.4742 34.6891 17.5953 34.5913 17.6942 34.4696L18.2181 33.8252C18.3171 33.7034 18.3852 33.5685 18.4225 33.4202C18.4656 33.2648 18.4762 33.1127 18.4544 32.964C18.4327 32.8152 18.3885 32.672 18.322 32.5344C18.2484 32.3909 18.1472 32.2667 18.0185 32.1616L12.9132 27.9963L13.9785 26.686L19.1588 30.9125Z" fill="#3B2A08"/>
<path d="M24.7128 25.7935L24.7862 25.7302C24.2352 24.7065 23.6872 23.6864 23.1422 22.6697C22.5982 21.6401 22.0507 20.6134 21.4997 19.5897L22.9988 18.2971L29.1329 25.4366L28.1055 26.3225L24.1184 21.6818L24.0555 21.736C24.5553 22.6576 25.0481 23.5852 25.5339 24.5189C26.0137 25.4455 26.504 26.3631 27.0048 27.2716L25.8711 28.2674L20.9091 24.4674L20.8357 24.5306L24.8138 29.1608L23.7759 30.0557L17.6419 22.9162L19.141 21.6236L24.7128 25.7935Z" fill="#3B2A08"/>
<path d="M37.3995 15.4809L33.0936 11.8112L34.7151 11.0635L37.289 13.1845L37.3644 13.1497C37.3648 12.8853 37.3675 12.6148 37.3724 12.3381C37.3773 12.0615 37.3845 11.7787 37.394 11.4898L37.4178 9.81741L39.0268 9.07555L38.9389 14.7863L40.7245 18.673L39.1909 19.3801L37.3995 15.4809Z" fill="#3B2A08"/>
<path d="M51.9302 12.0609C52.0283 12.4263 52.0537 12.7875 52.0062 13.1443C51.9588 13.5012 51.8471 13.8324 51.6712 14.1379C51.4953 14.4434 51.2661 14.7106 50.9836 14.9397C50.6988 15.1599 50.3737 15.3192 50.0084 15.4177L48.9793 15.6952C48.614 15.7937 48.253 15.8193 47.8963 15.7721C47.5373 15.716 47.2007 15.6013 46.8865 15.4279C46.5813 15.2522 46.3143 15.0231 46.0856 14.7407C45.8657 14.4559 45.7067 14.1308 45.6086 13.7654L43.8739 7.30857L45.5178 6.86533L47.2273 13.2286C47.2704 13.389 47.3378 13.5333 47.4296 13.6615C47.5279 13.7783 47.6404 13.877 47.7672 13.9576C47.9028 14.0357 48.0458 14.0879 48.1962 14.1143C48.3556 14.1382 48.511 14.1298 48.6624 14.0889L49.4643 13.8727C49.6158 13.8319 49.75 13.7622 49.8669 13.6638C49.9927 13.563 50.0902 13.4459 50.1595 13.3125C50.2288 13.1792 50.2766 13.0372 50.3031 12.8867C50.3271 12.7273 50.3176 12.5674 50.2745 12.407L48.565 6.04373L50.1955 5.60409L51.9302 12.0609Z" fill="#3B2A08"/>
<path d="M59.422 11.1638L59.5186 11.1555C59.6692 10.0031 59.8202 8.85532 59.9716 7.71214C60.1314 6.55898 60.2867 5.40622 60.4373 4.25385L62.4093 4.08296L63.2187 13.4608L61.8673 13.5779L61.3412 7.48231L61.2584 7.48948C61.1258 8.52913 60.9841 9.56958 60.8331 10.6108C60.6814 11.6429 60.5434 12.6737 60.4193 13.7034L58.9173 13.8474L57.1087 7.86297L57.0121 7.87134L57.537 13.9531L56.1718 14.0714L55.3624 4.69361L57.3344 4.52273L59.422 11.1638Z" fill="#3B2A08"/>
<path d="M80.419 9.05156C80.3607 9.35045 80.2453 9.62876 80.0727 9.88647C79.9002 10.1442 79.694 10.3577 79.4542 10.527C79.687 10.7795 79.8339 11.0621 79.8951 11.375C79.9581 11.6789 79.9595 11.9848 79.8994 12.2927L79.7881 12.8633C79.7138 13.2437 79.5923 13.5773 79.4236 13.8639C79.2548 14.1506 79.0505 14.3786 78.8106 14.5479C78.5798 14.7189 78.3179 14.8322 78.0251 14.8877C77.7412 14.9449 77.4363 14.9416 77.1103 14.8777L72.8992 14.0528L74.7045 4.80072L78.7933 5.60171C79.1193 5.66558 79.4076 5.77847 79.658 5.94038C79.9085 6.10229 80.1094 6.3015 80.2607 6.53802C80.4211 6.77631 80.5282 7.04649 80.5821 7.34855C80.6359 7.65062 80.6302 7.96921 80.5648 8.30433L80.419 9.05156ZM75.5572 8.95957L77.7578 9.39067C77.8756 9.41373 77.9941 9.40873 78.1133 9.37568C78.2326 9.34262 78.3418 9.28879 78.441 9.21418C78.5493 9.14135 78.6375 9.0505 78.7058 8.94162C78.7758 8.82369 78.824 8.69679 78.8506 8.56093L78.8771 8.42507C78.9053 8.28016 78.9083 8.14439 78.886 8.01778C78.8637 7.89116 78.8161 7.77369 78.7432 7.66538C78.6812 7.54978 78.6011 7.45417 78.503 7.37854C78.405 7.3029 78.2971 7.25356 78.1793 7.23049L75.9787 6.7994L75.5572 8.95957ZM78.273 12.1716C78.2995 12.0357 78.297 11.9036 78.2657 11.7752C78.2451 11.6395 78.203 11.5184 78.1391 11.4119C78.0753 11.3054 77.9898 11.2134 77.8827 11.136C77.7846 11.0603 77.6767 11.011 77.559 10.9879L75.2497 10.5355L74.8362 12.655L77.1455 13.1073C77.2632 13.1304 77.3817 13.1254 77.501 13.0924C77.6293 13.0611 77.743 13.0081 77.8422 12.9335C77.9414 12.8589 78.0251 12.7672 78.0934 12.6583C78.1724 12.5421 78.2261 12.4116 78.2544 12.2667L78.273 12.1716Z" fill="#3B2A08"/>
<path d="M89.5142 15.9724C89.3806 16.3264 89.1904 16.6343 88.9437 16.896C88.6969 17.1578 88.413 17.3611 88.092 17.506C87.7711 17.6508 87.4292 17.7335 87.0664 17.7539C86.7068 17.7657 86.3501 17.7046 85.9963 17.5706L84.9996 17.193C84.6457 17.059 84.3379 16.8684 84.0761 16.6212C83.8176 16.3654 83.6115 16.0752 83.4579 15.7505C83.3129 15.4292 83.23 15.0869 83.2092 14.7238C83.1971 14.364 83.2578 14.0071 83.3914 13.6531L85.7523 7.39801L87.3445 8.00113L85.0178 14.1655C84.9592 14.3209 84.9296 14.4775 84.9293 14.6353C84.9408 14.7877 84.9745 14.9336 85.0303 15.0732C85.0948 15.216 85.1803 15.3422 85.2869 15.4517C85.4022 15.5644 85.5332 15.6485 85.6799 15.7041L86.4566 15.9983C86.6033 16.0539 86.7528 16.076 86.905 16.0646C87.0659 16.0565 87.2134 16.0186 87.3474 15.9509C87.4814 15.8833 87.6031 15.7961 87.7124 15.6895C87.8249 15.5743 87.9105 15.4389 87.9692 15.2835L90.2959 9.11911L91.8751 9.71733L89.5142 15.9724Z" fill="#3B2A08"/>
<path d="M95.2244 17.7231L93.2893 21.0012L91.7769 20.1052L96.5687 11.9874L100.046 14.0476C100.356 14.231 100.61 14.4623 100.81 14.7414C101.014 15.0126 101.153 15.304 101.226 15.6155C101.308 15.9318 101.324 16.2579 101.276 16.594C101.235 16.9347 101.126 17.2561 100.948 17.5581L100.737 17.9157C100.558 18.2177 100.33 18.4685 100.051 18.6681C99.7853 18.8645 99.4921 19.0072 99.1717 19.0963C98.8639 19.182 98.5421 19.2006 98.2065 19.1519C97.8709 19.1033 97.5483 18.9872 97.2386 18.8038L96.8337 18.5639L97.6005 23.5552L95.8736 22.5322L95.2244 17.7231ZM97.2438 14.302L96.111 16.2212L97.8378 17.2442C98.1792 17.4464 98.4785 17.5111 98.7358 17.4383C98.9931 17.3655 99.2109 17.1781 99.3892 16.8761C99.5581 16.59 99.6147 16.3125 99.5591 16.0436C99.5082 15.7668 99.3121 15.5272 98.9707 15.325L97.2438 14.302Z" fill="#3B2A08"/>
<path d="M104.329 26.821C104.532 26.995 104.748 27.0762 104.976 27.0648C105.21 27.0463 105.423 26.9672 105.615 26.8276L106.629 25.637L105.44 24.6204L106.401 23.4931L108.8 25.5442L105.227 29.7376L104.017 28.7031L104.214 28.4713C104.008 28.4286 103.803 28.3563 103.599 28.2545C103.407 28.1517 103.228 28.0283 103.059 27.8844L102.333 27.2637C102.053 27.0238 101.831 26.7432 101.669 26.4219C101.512 26.0936 101.42 25.7537 101.392 25.4021C101.364 25.0505 101.402 24.7003 101.505 24.3515C101.615 24.0087 101.793 23.6932 102.038 23.4052L104.588 20.413C104.833 20.125 105.116 19.8995 105.437 19.7366C105.771 19.5727 106.113 19.4768 106.464 19.4491C106.815 19.4214 107.162 19.4628 107.504 19.5734C107.852 19.6769 108.167 19.8486 108.447 20.0885L109.352 20.8621C109.625 21.096 109.836 21.3611 109.984 21.6574C110.131 21.9536 110.214 22.2615 110.233 22.5811C110.265 22.8996 110.235 23.2197 110.142 23.5415C110.05 23.8632 109.904 24.1696 109.705 24.4605L108.411 23.354C108.517 23.1294 108.572 22.9088 108.574 22.6925C108.584 22.4821 108.483 22.2869 108.273 22.107L107.389 21.3513C107.27 21.2493 107.137 21.178 106.99 21.1372C106.856 21.0953 106.718 21.0866 106.576 21.1109C106.434 21.1352 106.294 21.1856 106.156 21.262C106.031 21.3374 105.915 21.4383 105.807 21.5647L103.374 24.42C103.267 24.5465 103.182 24.6809 103.122 24.8232C103.074 24.9646 103.049 25.1074 103.048 25.2517C103.046 25.3959 103.073 25.5346 103.13 25.6678C103.193 25.8069 103.284 25.9274 103.403 26.0294L104.329 26.821Z" fill="#3B2A08"/>
<path d="M110.174 32.7337L113.164 36.3504L111.939 37.3668L107.812 32.3739L115.066 26.3549L119.194 31.3478L117.969 32.3642L114.979 28.7476L113.189 30.2324L116.179 33.8491L114.965 34.8567L111.975 31.24L110.174 32.7337Z" fill="#3B2A08"/>
<path d="M118.192 40.0235L114.889 41.9147L114.018 40.3877L122.199 35.7044L124.201 39.2153C124.38 39.5279 124.487 39.8549 124.522 40.1962C124.565 40.5329 124.542 40.8547 124.451 41.1617C124.365 41.4768 124.218 41.7683 124.01 42.0364C123.806 42.3125 123.552 42.5377 123.248 42.7119L122.887 42.9182C122.583 43.0924 122.26 43.1974 121.92 43.233C121.591 43.2721 121.266 43.251 120.943 43.1698C120.633 43.0921 120.345 42.949 120.077 42.7407C119.809 42.5323 119.587 42.2718 119.408 41.9592L119.175 41.5504L117.372 46.2672L116.377 44.5238L118.192 40.0235ZM121.64 38.0497L119.706 39.157L120.701 40.9004C120.897 41.2451 121.125 41.4494 121.385 41.5135C121.645 41.5775 121.927 41.5224 122.231 41.3482C122.519 41.1831 122.706 40.97 122.79 40.7088C122.883 40.4431 122.831 40.1379 122.635 39.7932L121.64 38.0497Z" fill="#3B2A08"/>
<path d="M88.5187 31.6476C83.0385 28.3088 75.8041 26.4702 68.1485 26.4702H61.8421C54.1867 26.4702 46.952 28.3088 41.4719 31.6476C35.5833 35.235 32.3403 40.1502 32.3403 45.4876V48.0333H97.6502V45.4876C97.6502 40.1502 94.4072 35.235 88.5187 31.6476ZM37.7007 42.942C39.8807 36.5586 50.0518 31.5615 61.8424 31.5615H68.1488C79.9394 31.5615 90.1105 36.5586 92.2905 42.942H37.7007ZM32.3403 65.8528H97.6502V70.9441H32.3403V65.8528ZM84.5883 53.1308C80.7706 53.1308 78.7704 54.1053 77.0057 54.9651C75.4601 55.7181 74.2393 56.3128 71.5258 56.3128C68.8124 56.3128 67.5918 55.7181 66.0463 54.9651C64.2817 54.1059 62.2815 53.1308 58.464 53.1308C54.6464 53.1308 52.6463 54.1053 50.8817 54.9651C49.3363 55.7181 48.1158 56.3128 45.4025 56.3128C42.6892 56.3128 41.4685 55.7181 39.9231 54.9651C38.1585 54.1059 36.1583 53.1308 32.3408 53.1308V58.2221C35.0541 58.2221 36.2748 58.8168 37.8202 59.5698C39.5848 60.429 41.5849 61.4041 45.4025 61.4041C49.22 61.4041 51.22 60.4296 52.9846 59.5698C54.53 58.8168 55.7507 58.2221 58.464 58.2221C61.1773 58.2221 62.398 58.8168 63.9434 59.5698C65.7082 60.429 67.7081 61.4041 71.5258 61.4041C75.3435 61.4041 77.3436 60.4296 79.1084 59.5698C80.654 58.8168 81.8747 58.2221 84.5883 58.2221C87.3019 58.2221 88.5226 58.8168 90.0681 59.5698C91.8329 60.429 93.833 61.4041 97.6507 61.4041V56.3128C94.9371 56.3128 93.7164 55.7181 92.1708 54.9651C90.4056 54.1053 88.4055 53.1308 84.5883 53.1308ZM32.3403 88.7636C32.3415 89.776 32.7313 90.7465 33.4244 91.4624C34.1174 92.1782 35.057 92.5809 36.0371 92.5821H93.9535C94.9336 92.5809 95.8732 92.1782 96.5662 91.4624C97.2593 90.7465 97.6491 89.776 97.6502 88.7636V76.0354H32.3403V88.7636ZM37.2694 81.1267H92.7212V87.4908H37.2694V81.1267Z" fill="white"/>
</svg>
