<svg width="210" height="150" viewBox="0 0 210 150" fill="none" xmlns="http://www.w3.org/2000/svg">
<path d="M14.3186 67.8651L5.12394 67.127L6.55909 64.5989L11.986 64.9445L12.0528 64.8269C11.8016 64.4781 11.5476 64.1192 11.2907 63.75C11.0339 63.3808 10.7742 63.0013 10.5117 62.6117L8.95101 60.3854L10.375 57.8769L15.6955 65.4853L21.7599 68.9075L20.4026 71.2984L14.3186 67.8651Z" fill="#3B2A08"/>
<path d="M30.3433 49.4858C30.8214 49.8741 31.1992 50.3259 31.4765 50.8414C31.7538 51.3568 31.9216 51.8995 31.9798 52.4693C32.0381 53.0392 31.9895 53.6093 31.834 54.1797C31.6668 54.7406 31.3883 55.2596 30.9986 55.7366L29.9009 57.0805C29.5113 57.5575 29.0579 57.9344 28.5408 58.2112C28.012 58.4786 27.4572 58.6473 26.8762 58.7174C26.3047 58.7758 25.7329 58.7277 25.161 58.5729C24.5986 58.4065 24.0783 58.1292 23.6001 57.7409L15.1505 50.8798L16.904 48.7331L25.2312 55.4948C25.4411 55.6652 25.6679 55.7913 25.9115 55.873C26.153 55.9337 26.396 55.9568 26.6405 55.9424C26.8945 55.9165 27.1336 55.8494 27.3578 55.7411C27.5915 55.6213 27.7891 55.4624 27.9507 55.2646L28.806 54.2175C28.9676 54.0197 29.0789 53.8004 29.1398 53.5595C29.2102 53.3071 29.2277 53.06 29.1923 52.8184C29.1569 52.5768 29.085 52.3442 28.9766 52.1207C28.8565 51.8878 28.6915 51.686 28.4816 51.5156L20.1544 44.7539L21.8936 42.6247L30.3433 49.4858Z" fill="#3B2A08"/>
<path d="M39.4637 41.1297L39.5834 41.027C38.6837 39.364 37.7889 37.7068 36.899 36.0552C36.0107 34.3825 35.1167 32.7147 34.217 31.0518L36.6625 28.9531L46.6761 40.5527L45.0002 41.9909L38.4913 34.4512L38.3887 34.5393C39.2048 36.0364 40.0095 37.5433 40.8028 39.0599C41.5863 40.5653 42.3868 42.0559 43.2045 43.5319L41.3552 45.1486L33.2559 38.9737L33.1362 39.0764L39.6303 46.5991L37.9373 48.052L27.9237 36.4524L30.3692 34.3538L39.4637 41.1297Z" fill="#3B2A08"/>
<path d="M60.2715 24.3268L53.2446 18.3526L55.8868 17.1402L60.0869 20.5932L60.2097 20.5368C60.2099 20.107 60.2137 19.6672 60.2212 19.2175C60.2287 18.7677 60.2399 18.308 60.2548 17.8384L60.2903 15.1195L62.912 13.9165L62.7797 23.2007L65.6981 29.5229L63.1994 30.6696L60.2715 24.3268Z" fill="#3B2A08"/>
<path d="M84.0344 18.7616C84.1949 19.3563 84.2368 19.9439 84.1601 20.5244C84.0834 21.105 83.902 21.6436 83.616 22.1404C83.3299 22.6371 82.957 23.0716 82.4973 23.4439C82.0337 23.8016 81.5044 24.0603 80.9095 24.2199L79.2336 24.6697C78.6386 24.8293 78.0506 24.8704 77.4696 24.793C76.8845 24.7011 76.336 24.5139 75.824 24.2313C75.3266 23.9448 74.8913 23.5716 74.5182 23.1118C74.1595 22.648 73.9 22.1188 73.7395 21.5241L70.9028 11.0158L73.5799 10.2974L76.3755 20.6535C76.4459 20.9145 76.556 21.1494 76.7057 21.3581C76.866 21.5485 77.0495 21.7092 77.2561 21.8404C77.4772 21.9678 77.7103 22.053 77.9553 22.0961C78.2149 22.1353 78.468 22.1219 78.7147 22.0557L80.0206 21.7052C80.2673 21.6391 80.4857 21.526 80.676 21.3661C80.8807 21.2022 81.0394 21.0119 81.152 20.795C81.2647 20.5781 81.3424 20.3473 81.3852 20.1024C81.4242 19.8431 81.4084 19.5829 81.3379 19.3218L78.5424 8.96579L81.1977 8.25325L84.0344 18.7616Z" fill="#3B2A08"/>
<path d="M96.3384 17.2898L96.4956 17.2763C96.74 15.4004 96.9852 13.5321 97.2309 11.6712C97.4904 9.79412 97.7423 7.91765 97.9868 6.04183L101.197 5.76494L102.521 21.0315L100.321 21.2213L99.4605 11.298L99.3258 11.3096C99.1107 13.002 98.8806 14.6956 98.6355 16.3905C98.3891 18.0705 98.1652 19.7485 97.9637 21.4246L95.5184 21.6581L92.5698 11.9149L92.4126 11.9284L93.2713 21.8293L91.0485 22.021L89.7246 6.75438L92.9352 6.47749L96.3384 17.2898Z" fill="#3B2A08"/>
<path d="M130.712 13.8396C130.617 14.3261 130.428 14.7791 130.147 15.1988C129.866 15.6185 129.529 15.9662 129.139 16.242C129.517 16.6526 129.756 17.1125 129.856 17.6216C129.958 18.116 129.96 18.6139 129.861 19.1151L129.679 20.0439C129.558 20.6631 129.359 21.2061 129.084 21.6728C128.809 22.1396 128.476 22.5109 128.085 22.7867C127.709 23.0654 127.282 23.2501 126.805 23.3408C126.343 23.4343 125.846 23.4293 125.316 23.3258L118.459 21.989L121.411 6.92927L128.069 8.2273C128.6 8.3308 129.069 8.51413 129.477 8.77729C129.885 9.04045 130.211 9.36439 130.458 9.7491C130.718 10.1367 130.892 10.5762 130.98 11.0678C131.067 11.5593 131.057 12.0778 130.95 12.6233L130.712 13.8396ZM122.794 13.6964L126.378 14.395C126.569 14.4324 126.762 14.4241 126.957 14.3702C127.151 14.3162 127.329 14.2285 127.49 14.1069C127.667 13.9882 127.811 13.8402 127.922 13.663C128.036 13.4709 128.115 13.2644 128.158 13.0432L128.202 12.8221C128.248 12.5862 128.253 12.3652 128.217 12.1592C128.181 11.9532 128.103 11.7621 127.985 11.5859C127.884 11.3978 127.754 11.2423 127.594 11.1194C127.434 10.9964 127.259 10.9163 127.067 10.8789L123.484 10.1803L122.794 13.6964ZM127.213 18.9202C127.256 18.699 127.252 18.484 127.201 18.2751C127.168 18.0543 127.1 17.8573 126.996 17.684C126.892 17.5107 126.753 17.3611 126.579 17.2353C126.419 17.1123 126.243 17.0322 126.052 16.9948L122.291 16.2617L121.615 19.7115L125.375 20.4446C125.567 20.482 125.76 20.4737 125.954 20.4197C126.163 20.3686 126.349 20.2823 126.51 20.1608C126.672 20.0392 126.808 19.8898 126.92 19.7125C127.049 19.5234 127.136 19.3108 127.182 19.075L127.213 18.9202Z" fill="#3B2A08"/>
<path d="M145.624 25.0996C145.405 25.6756 145.095 26.1766 144.692 26.6028C144.29 27.029 143.827 27.3602 143.303 27.5964C142.78 27.8326 142.223 27.9677 141.631 28.0016C141.045 28.0215 140.464 27.9229 139.888 27.7056L138.264 27.0935C137.688 26.8762 137.186 26.5668 136.76 26.1653C136.339 25.7497 136.004 25.2781 135.754 24.7505C135.519 24.2281 135.384 23.6717 135.351 23.0812C135.332 22.496 135.432 21.9154 135.65 21.3395L139.51 11.1623L142.103 12.1401L138.3 22.1698C138.204 22.4226 138.155 22.6773 138.154 22.9339C138.173 23.1817 138.228 23.419 138.318 23.6459C138.423 23.8781 138.562 24.0831 138.736 24.2609C138.923 24.444 139.137 24.5806 139.376 24.6707L140.641 25.1477C140.88 25.2378 141.123 25.2734 141.372 25.2546C141.634 25.241 141.874 25.1791 142.093 25.0689C142.311 24.9586 142.51 24.8166 142.688 24.643C142.872 24.4554 143.011 24.2351 143.107 23.9823L146.911 13.9526L149.484 14.9224L145.624 25.0996Z" fill="#3B2A08"/>
<path d="M155.03 27.9654L151.869 33.2956L149.404 31.842L157.232 18.6426L162.901 21.9847C163.405 22.2823 163.82 22.6577 164.145 23.1109C164.478 23.5513 164.704 24.0245 164.823 24.5307C164.955 25.0445 164.981 25.5744 164.902 26.1206C164.835 26.6744 164.656 27.1968 164.365 27.6878L164.02 28.2693C163.729 28.7603 163.356 29.1683 162.901 29.4931C162.467 29.8127 161.989 30.0451 161.466 30.1903C160.964 30.3302 160.439 30.3609 159.892 30.2824C159.345 30.2039 158.818 30.0158 158.314 29.7182L157.654 29.3291L158.896 37.4388L156.081 35.7792L155.03 27.9654ZM158.33 22.4027L156.479 25.5232L159.294 27.1828C159.85 27.5109 160.338 27.6156 160.758 27.4969C161.178 27.3781 161.533 27.0732 161.824 26.5822C162.1 26.117 162.193 25.666 162.103 25.2291C162.02 24.7793 161.701 24.3904 161.144 24.0623L158.33 22.4027Z" fill="#3B2A08"/>
<path d="M169.958 42.7746C170.29 43.0569 170.642 43.1888 171.014 43.17C171.396 43.1399 171.743 43.0113 172.056 42.7844L173.712 40.8501L171.773 39.1997L173.341 37.368L177.254 40.698L171.421 47.5112L169.447 45.8315L169.77 45.4549C169.434 45.3857 169.099 45.2685 168.766 45.1033C168.454 44.9364 168.16 44.7361 167.886 44.5025L166.702 43.4947C166.244 43.1052 165.882 42.6496 165.617 42.1279C165.362 41.5948 165.211 41.0427 165.166 40.4717C165.121 39.9006 165.183 39.3318 165.352 38.7652C165.532 38.2083 165.822 37.6959 166.223 37.228L170.385 32.3663C170.785 31.8984 171.247 31.5321 171.771 31.2673C172.315 31.0008 172.874 30.8449 173.447 30.7997C174.019 30.7545 174.585 30.8215 175.143 31.0009C175.712 31.1688 176.224 31.4475 176.682 31.837L178.158 33.093C178.604 33.4728 178.948 33.9032 179.188 34.3843C179.429 34.8654 179.565 35.3654 179.595 35.8844C179.647 36.4017 179.597 36.9217 179.446 37.4444C179.295 37.967 179.057 38.4647 178.732 38.9373L176.621 37.1408C176.795 36.776 176.884 36.4178 176.888 36.0663C176.904 35.7246 176.74 35.4076 176.397 35.1155L174.955 33.8887C174.761 33.7232 174.543 33.6073 174.303 33.5411C174.085 33.4733 173.859 33.4592 173.628 33.4987C173.396 33.5383 173.168 33.6202 172.943 33.7444C172.739 33.8669 172.549 34.0308 172.373 34.2363L168.402 38.8754C168.226 39.0808 168.088 39.2992 167.989 39.5304C167.911 39.7601 167.871 39.992 167.868 40.2263C167.865 40.4606 167.91 40.6859 168.002 40.9021C168.105 41.128 168.254 41.3238 168.448 41.4893L169.958 42.7746Z" fill="#3B2A08"/>
<path d="M179.567 52.4222L184.449 58.2988L182.45 59.9488L175.711 51.8361L187.545 42.0648L194.284 50.1776L192.285 51.8276L187.404 45.9511L184.485 48.3616L189.366 54.2382L187.385 55.8739L182.504 49.9974L179.567 52.4222Z" fill="#3B2A08"/>
<path d="M192.708 64.3227L187.323 67.3905L185.9 64.9075L199.234 57.3105L202.506 63.0195C202.798 63.5279 202.972 64.0594 203.031 64.6141C203.102 65.1614 203.064 65.6844 202.917 66.1832C202.777 66.695 202.538 67.1686 202.199 67.6039C201.867 68.0523 201.453 68.4178 200.957 68.7004L200.37 69.035C199.874 69.3177 199.348 69.4876 198.792 69.545C198.256 69.6079 197.726 69.5731 197.199 69.4407C196.694 69.3138 196.223 69.0808 195.786 68.7417C195.349 68.4027 194.985 67.979 194.694 67.4706L194.313 66.8059L191.38 74.4682L189.755 71.6332L192.708 64.3227ZM198.327 61.1211L195.175 62.9171L196.8 65.7521C197.121 66.3126 197.493 66.6451 197.917 66.7496C198.34 66.8541 198.8 66.765 199.296 66.4824C199.766 66.2147 200.07 65.8687 200.208 65.4444C200.359 65.0126 200.273 64.5165 199.952 63.956L198.327 61.1211Z" fill="#3B2A08"/>
<path d="M143.98 50.7989C135.015 45.3633 123.181 42.3701 110.658 42.3701H100.342C87.8194 42.3701 75.9851 45.3633 67.0207 50.7989C57.3883 56.6393 52.0834 64.6411 52.0834 73.3305V77.4748H158.917V73.3305C158.917 64.6411 153.612 56.6393 143.98 50.7989ZM60.8518 69.1862C64.4178 58.794 81.0556 50.6587 100.343 50.6587H110.659C129.946 50.6587 146.583 58.794 150.149 69.1862H60.8518ZM52.0834 106.485H158.917V114.774H52.0834V106.485ZM137.55 85.7735C131.305 85.7735 128.033 87.36 125.147 88.7598C122.618 89.9857 120.621 90.9539 116.183 90.9539C111.744 90.9539 109.747 89.9857 107.219 88.7598C104.333 87.361 101.061 85.7735 94.8162 85.7735C88.5715 85.7735 85.2998 87.36 82.4132 88.7598C79.8853 89.9857 77.8887 90.9539 73.4503 90.9539C69.0119 90.9539 67.0151 89.9857 64.4871 88.7598C61.6006 87.361 58.3288 85.7735 52.0841 85.7735V94.0621C56.5225 94.0621 58.5193 95.0304 61.0473 96.2563C63.9338 97.655 67.2056 99.2425 73.4503 99.2425C79.695 99.2425 82.9665 97.656 85.8531 96.2563C88.381 95.0304 90.3779 94.0621 94.8162 94.0621C99.2546 94.0621 101.251 95.0304 103.779 96.2563C106.666 97.655 109.938 99.2425 116.183 99.2425C122.428 99.2425 125.699 97.656 128.586 96.2563C131.114 95.0304 133.111 94.0621 137.55 94.0621C141.989 94.0621 143.986 95.0304 146.514 96.2563C149.401 97.655 152.673 99.2425 158.918 99.2425V90.9539C154.479 90.9539 152.482 89.9857 149.954 88.7598C147.066 87.36 143.794 85.7735 137.55 85.7735ZM52.0834 143.784C52.0852 145.432 52.723 147.012 53.8566 148.177C54.9903 149.343 56.5273 149.998 58.1305 150H152.87C154.473 149.998 156.01 149.343 157.144 148.177C158.277 147.012 158.915 145.432 158.917 143.784V123.062H52.0834V143.784ZM60.1463 131.351H150.854V141.712H60.1463V131.351Z" fill="#DF843E"/>
</svg>
