<svg width="80" height="81" viewBox="0 0 80 81" fill="none" xmlns="http://www.w3.org/2000/svg">
<path d="M53.0035 46.2335L54 47.1193L54.9965 46.2335L64.5703 37.7235H72C73.6699 37.7235 75.3078 38.4592 76.5419 39.8305C77.7808 41.207 78.5 43.1047 78.5 45.1124C78.5 49.3699 75.4668 52.5013 72 52.5013H8C6.33015 52.5013 4.69224 51.7656 3.45809 50.3944C2.21924 49.0179 1.5 47.1201 1.5 45.1124C1.5 43.1047 2.21924 41.207 3.45809 39.8305C4.69224 38.4592 6.33015 37.7235 8 37.7235H43.4297L53.0035 46.2335ZM5.61789 25.8346C5.69419 25.2088 5.81968 24.4139 6.02591 23.4972C6.55818 21.1316 7.62207 17.983 9.74327 14.8405C13.9277 8.64142 22.429 2.16797 40 2.16797C57.571 2.16797 66.0723 8.64142 70.2567 14.8405C72.3779 17.983 73.4418 21.1316 73.9741 23.4972C74.1803 24.4139 74.3058 25.2088 74.3821 25.8346H5.61789ZM16 79.168C10.3332 79.168 5.5 74.0366 5.5 67.3346V64.3902H74.5V67.3346C74.5 74.0366 69.6668 79.168 64 79.168H16Z" fill="#F7E1CD" stroke="#DF843E" stroke-width="3"/>
</svg>
