<svg width="112" height="88" viewBox="0 0 112 88" fill="none" xmlns="http://www.w3.org/2000/svg">
<path d="M0 74C0 77.713 1.475 81.274 4.1005 83.8995C6.72601 86.525 10.287 88 14 88H98C101.713 88 105.274 86.525 107.899 83.8995C110.525 81.274 112 77.713 112 74V35.5H0V74ZM16.5 55C16.5 53.0109 17.2902 51.1032 18.6967 49.6967C20.1032 48.2902 22.0109 47.5 24 47.5H36C37.9891 47.5 39.8968 48.2902 41.3033 49.6967C42.7098 51.1032 43.5 53.0109 43.5 55V60C43.5 61.9891 42.7098 63.8968 41.3033 65.3033C39.8968 66.7098 37.9891 67.5 36 67.5H24C22.0109 67.5 20.1032 66.7098 18.6967 65.3033C17.2902 63.8968 16.5 61.9891 16.5 60V55ZM98 0H14C10.287 0 6.72601 1.475 4.1005 4.10051C1.475 6.72602 0 10.287 0 14V20.5H112V14C112 10.287 110.525 6.72602 107.899 4.10051C105.274 1.475 101.713 0 98 0Z" fill="#FFD64F"/>
</svg>
