<svg width="112" height="90" viewBox="0 0 112 90" fill="none" xmlns="http://www.w3.org/2000/svg">
<path d="M11.2 0C8.22958 0 5.38081 1.18526 3.2804 3.29505C1.18 5.40483 0 8.26631 0 11.25V33.75C2.97043 33.75 5.81919 34.9353 7.9196 37.0451C10.02 39.1548 11.2 42.0163 11.2 45C11.2 47.9837 10.02 50.8452 7.9196 52.9549C5.81919 55.0647 2.97043 56.25 0 56.25V78.75C0 81.7337 1.18 84.5952 3.2804 86.7049C5.38081 88.8147 8.22958 90 11.2 90H100.8C103.77 90 106.619 88.8147 108.72 86.7049C110.82 84.5952 112 81.7337 112 78.75V56.25C109.03 56.25 106.181 55.0647 104.08 52.9549C101.98 50.8452 100.8 47.9837 100.8 45C100.8 42.0163 101.98 39.1548 104.08 37.0451C106.181 34.9353 109.03 33.75 112 33.75V11.25C112 8.26631 110.82 5.40483 108.72 3.29505C106.619 1.18526 103.77 0 100.8 0H11.2ZM75.6 16.875L84 25.3125L36.4 73.125L28 64.6875L75.6 16.875ZM38.136 17.1C43.624 17.1 48.048 21.5438 48.048 27.0563C48.048 29.6968 47.0037 32.2292 45.1448 34.0964C43.286 35.9635 40.7648 37.0125 38.136 37.0125C32.648 37.0125 28.224 32.5688 28.224 27.0563C28.224 24.4157 29.2683 21.8833 31.1272 20.0161C32.986 18.149 35.5072 17.1 38.136 17.1ZM73.864 52.9875C79.352 52.9875 83.776 57.4313 83.776 62.9437C83.776 65.5843 82.7317 68.1167 80.8728 69.9839C79.014 71.851 76.4928 72.9 73.864 72.9C68.376 72.9 63.952 68.4563 63.952 62.9437C63.952 60.3032 64.9963 57.7708 66.8552 55.9036C68.714 54.0365 71.2352 52.9875 73.864 52.9875Z" fill="#FFD64F"/>
</svg>
