<svg width="80" height="81" viewBox="0 0 80 81" fill="none" xmlns="http://www.w3.org/2000/svg">
<path d="M60.3182 15.3952V16.8952H61.8182H78.3423L72.5092 75.156C72.2257 77.4198 70.3226 79.168 68.0727 79.168H63.5364V51.3589C63.5364 42.0873 59.6545 36.3807 54.2532 31.0545L54.2494 31.0507C50.717 27.5919 45.0676 24.538 39.0351 22.7347L38.2864 16.8952H54.6545H56.1545V15.3952V2.16797H60.3182V15.3952ZM1.5 77.0316V74.8952H53.1545V77.0316C53.1545 78.1476 52.2091 79.168 50.9091 79.168H3.63636C2.47449 79.168 1.5 78.1766 1.5 77.0316ZM1.55326 50.0771C1.98407 44.0933 4.99585 39.5679 9.40791 36.4367C14.2261 33.0173 20.736 31.2589 27.3273 31.2589C33.9186 31.2589 40.4285 33.0173 45.2466 36.4367C49.6587 39.5679 52.6705 44.0933 53.1013 50.0771H1.55326ZM1.5 60.3498H53.0455V64.6225H1.5V60.3498Z" fill="#F7E1CD" fill-opacity="0.5" stroke="#DF843E" stroke-width="3"/>
</svg>
