<svg width="23" height="35" viewBox="0 0 23 35" fill="none" xmlns="http://www.w3.org/2000/svg">
<path d="M21.2918 17.6313C21.1778 17.6855 21.0599 17.7349 20.9386 17.7793L20.9335 17.7809L20.6837 17.8717L20.3826 17.9787L20.2904 18.0108L20.194 18.0405L19.9823 18.1049C19.6808 18.2002 19.3268 18.2903 18.9223 18.387C18.7235 18.4298 18.5103 18.4771 18.2885 18.5211C18.07 18.5601 17.8379 18.604 17.6002 18.6423C17.3651 18.6763 17.1164 18.7172 16.8664 18.7475C16.617 18.7769 16.3556 18.8126 16.0954 18.8354L15.6974 18.8738C15.5636 18.886 15.4302 18.8948 15.2943 18.9054C15.0219 18.9278 14.7482 18.9426 14.47 18.9576C14.1908 18.9744 13.9129 18.9808 13.6287 18.9927C13.3476 18.9988 13.062 19.0074 12.7776 19.0095C12.208 19.0157 11.6348 19.0118 11.0664 18.999C8.79218 18.949 6.58977 18.759 4.93691 18.5711C4.52333 18.5232 4.14473 18.4774 3.80696 18.4326C3.51297 18.3943 3.21959 18.3535 2.92687 18.3101C2.6911 18.2753 2.44545 18.2376 2.33777 18.219L2.15291 18.1877C0.666965 17.9361 -0.266499 16.8258 0.0678815 15.7078C0.27014 15.0316 0.89019 14.5079 1.67725 14.2548C1.54776 14.0107 1.48132 13.7503 1.48149 13.4875C1.48149 12.5333 2.33869 11.7301 3.50517 11.4889C3.2472 11.1667 3.11122 10.7975 3.11192 10.4214C3.11192 9.27643 4.34552 8.34828 5.86726 8.34828C5.88759 8.34828 5.92641 8.34814 5.98043 8.34745C5.91552 8.25545 5.85997 8.15987 5.81425 8.06156C5.70304 7.94901 5.60928 7.82727 5.5348 7.69871C4.99588 6.76712 5.56273 5.6832 6.80091 5.27765C6.93337 5.23496 7.07029 5.20059 7.21028 5.17487L7.71954 5.08359C7.78803 5.07077 7.86119 5.05913 7.9467 5.04218L8.22926 4.98356L8.54478 4.91074C8.65246 4.88243 8.77011 4.85515 8.88658 4.82243C9.12509 4.76132 9.37249 4.68609 9.62731 4.60026C9.88765 4.51228 10.1399 4.41138 10.3825 4.29824C10.6279 4.18251 10.8672 4.05589 11.0814 3.91225C11.1918 3.8415 11.2888 3.76511 11.3868 3.68733C11.4788 3.60817 11.5693 3.52668 11.6471 3.44132C11.8028 3.27438 11.9248 3.091 12.0091 2.89716C12.0903 2.7073 12.1368 2.50842 12.1317 2.31415C12.1275 2.1205 12.0815 1.92995 11.9961 1.76413C11.9149 1.59687 11.8022 1.44834 11.6715 1.33798C11.6107 1.2852 11.5432 1.23702 11.4699 1.19414C11.4043 1.15796 11.335 1.12575 11.2626 1.09783C11.1254 1.04919 10.9901 1.02625 10.8716 1.02267C10.7532 1.01895 10.6536 1.03293 10.5838 1.04113L10.477 1.06145L10.4557 1.06552C10.353 1.08504 10.2445 1.07815 10.1475 1.04594C10.0505 1.01372 9.97068 0.958034 9.92063 0.887734C9.87057 0.817433 9.8532 0.736558 9.87128 0.657974C9.88935 0.579389 9.94184 0.507609 10.0204 0.454053L10.1593 0.359329C10.2562 0.3016 10.404 0.213903 10.6341 0.138262C10.8618 0.0604164 11.1742 0.000757788 11.5472 0C11.9183 0.000895568 12.3382 0.0747455 12.7432 0.222996C13.1483 0.373176 13.5312 0.598997 13.8649 0.88365C14.1926 1.1712 14.4667 1.51819 14.6571 1.90832C14.8426 2.29885 14.9419 2.72983 14.9447 3.17052C14.9426 3.30692 14.9316 3.44316 14.9118 3.57876C15.4932 3.65706 16.0254 3.87446 16.4294 4.19863C17.005 4.65916 17.2457 5.26539 17.1599 5.84806C17.6127 5.95396 18.0212 6.14636 18.3456 6.40648C19.2329 7.11646 19.3256 8.1724 18.6501 8.95478C19.1944 9.0433 19.6901 9.25441 20.071 9.56005C21.1135 10.3941 21.06 11.7061 19.9514 12.4905C19.8756 12.5441 19.7979 12.5951 19.7208 12.6469C20.7873 12.7262 21.7959 13.1608 22.4126 13.8954C23.4746 15.1598 22.9727 16.8325 21.2918 17.6313Z" fill="#F4E3C1"/>
<path d="M17.7731 32.6467L17.7266 32.6472C17.4643 33.9645 14.8172 34.9997 11.5881 34.9997C8.35885 34.9997 5.71154 33.9644 5.4495 32.647L5.42642 32.6467L3.02112 21.2744H20.1784L17.7731 32.6467Z" fill="#FFD45F"/>
<path d="M20.1784 22.1309H3.02112L3.46519 24.2305C4.42191 24.4757 5.61174 24.7043 7.02636 24.8685L4.90865 26.4619L3.97244 25.7575L4.20079 26.8391L4.30407 26.9168L4.22908 26.9733L4.39481 27.7584L4.90865 27.3718L7.26964 29.1482L5.04196 30.8243L5.32067 32.1444L7.26964 33.6108L6.73639 34.012C6.96529 34.1339 7.21983 34.2469 7.49698 34.3496L7.87431 34.0657L8.72234 34.7037C9.19535 34.8076 9.7047 34.8863 10.2405 34.9362L8.47898 33.6108L10.84 31.8344L13.201 33.6108L11.3597 34.9962C11.4357 34.9973 11.5116 34.9984 11.5882 34.9984C11.9379 34.9984 12.2801 34.9856 12.6139 34.9623L13.8055 34.0657L14.6075 34.6691C14.9063 34.5993 15.1991 34.5158 15.4843 34.4189L14.4101 33.6107L16.7711 31.8343L17.7836 32.5961L17.9496 31.8112L17.3758 31.3795L18.1669 30.7842L18.3957 29.7023L16.7712 30.9245L14.4102 29.1481L16.7712 27.3717L18.5979 28.7461L18.7639 27.9612L17.3758 26.9168L19.2893 25.477L19.5336 24.3219C19.5987 24.3052 19.6629 24.2884 19.7257 24.2715L20.1784 22.1309ZM11.5881 25.1196C11.9486 25.1196 12.2981 25.1162 12.6371 25.1096L10.8399 26.4618L8.94832 25.0386C9.82638 25.0931 10.7071 25.1201 11.5881 25.1196ZM5.51322 26.9168L7.87422 25.1404L10.2352 26.9168L7.87422 28.6932L5.51322 26.9168ZM7.87422 33.1558L5.51322 31.3794L7.87422 29.603L10.2352 31.3794L7.87422 33.1558ZM8.47879 29.148L10.8398 27.3717L13.2008 29.148L10.8398 30.9244L8.47879 29.148ZM16.1664 31.3794L13.8054 33.1558L11.4445 31.3794L13.8054 29.603L16.1664 31.3794ZM13.8054 28.6932L11.4445 26.9168L13.8054 25.1404L16.1664 26.9168L13.8054 28.6932ZM19.132 24.6854L16.771 26.4618L14.8474 25.0145C16.4769 24.9025 17.7973 24.7099 18.8596 24.4806L19.132 24.6854Z" fill="#EABC54"/>
<path d="M22.9801 18.2552L22.106 21.5848C22.0673 21.7317 21.978 21.8682 21.847 21.9808C21.716 22.0935 21.5479 22.1782 21.3596 22.2264C21.3405 22.2431 21.3196 22.2585 21.2971 22.2726C20.1849 22.9603 17.4368 23.9368 11.5882 23.9368C5.73952 23.9368 2.34508 22.7172 1.57871 22.1406C1.44815 22.0789 1.33571 21.9978 1.24829 21.9023C1.16088 21.8067 1.10033 21.6987 1.07037 21.5849L0.196233 18.2553C0.0478123 17.69 0.746515 17.2047 1.48202 17.3651C3.03527 17.7038 5.99168 18.05 11.5882 18.05C17.1846 18.05 20.1411 17.7038 21.6943 17.3651C22.4297 17.2046 23.1284 17.69 22.9801 18.2552Z" fill="#FFD45F"/>
<path d="M11.763 20.5032C7.4023 20.5032 4.17194 20.2808 2.16144 19.8425C1.67425 19.7362 1.3937 19.3529 1.53498 18.9863C1.67626 18.6196 2.18589 18.4085 2.6729 18.5148C3.94084 18.7914 6.54703 19.1209 11.763 19.1209C12.2702 19.1209 12.6815 19.4304 12.6815 19.812C12.6815 20.1937 12.2702 20.5032 11.763 20.5032Z" fill="#FFE6A9"/>
</svg>
