<svg width="23" height="37" viewBox="0 0 23 37" fill="none" xmlns="http://www.w3.org/2000/svg">
<path d="M20.191 32.6537L17.4981 35.7444C16.9217 36.2989 15.6625 35.7514 15.6625 35.1978V12.0341C15.6625 11.4806 18.1392 7.52051 20.8833 7.52051L20.854 30.592C20.854 31.7291 20.7569 31.9036 20.191 32.6537Z" fill="#E3A919"/>
<path d="M17.7507 10.4832H0L0.202568 10.1342L3.90516 7.52093C4.41263 7.14087 4.77286 7.01953 5.34924 7.01953H20.3465C20.5428 7.01953 20.8832 7.29731 20.7057 7.49085L17.7507 10.4832Z" fill="#FFD983"/>
<path d="M16.7066 36.1002H1.04416C0.767233 36.1002 0.501646 35.9945 0.305828 35.8065C0.11001 35.6184 0 35.3633 0 35.0974V10.4826C0 10.4826 0.467784 10.0273 1.04416 10.0273H16.7066C17.283 10.0273 17.7507 10.4826 17.7507 10.4826V35.0974C17.7507 35.3633 17.6407 35.6184 17.4449 35.8065C17.2491 35.9945 16.9835 36.1002 16.7066 36.1002Z" fill="#FFCC4D"/>
<path d="M6.26493 30.0842C7.99496 30.0842 9.39742 28.7373 9.39742 27.0758C9.39742 25.4143 7.99496 24.0674 6.26493 24.0674C4.53491 24.0674 3.13245 25.4143 3.13245 27.0758C3.13245 28.7373 4.53491 30.0842 6.26493 30.0842Z" fill="#F4900C"/>
<path d="M6.26503 25.0693C8.57172 25.0693 10.4417 23.2734 10.4417 21.0581C10.4417 18.8428 8.57172 17.0469 6.26503 17.0469C3.95833 17.0469 2.08838 18.8428 2.08838 21.0581C2.08838 23.2734 3.95833 25.0693 6.26503 25.0693Z" fill="#EA596E"/>
<path d="M10.9637 28.078C13.5588 28.078 15.6625 26.0576 15.6625 23.5653C15.6625 21.0731 13.5588 19.0527 10.9637 19.0527C8.36871 19.0527 6.26501 21.0731 6.26501 23.5653C6.26501 26.0576 8.36871 28.078 10.9637 28.078Z" fill="#FFE8B6"/>
<path d="M10.9637 26.0726C12.4054 26.0726 13.5741 24.9502 13.5741 23.5656C13.5741 22.181 12.4054 21.0586 10.9637 21.0586C9.52199 21.0586 8.35327 22.181 8.35327 23.5656C8.35327 24.9502 9.52199 26.0726 10.9637 26.0726Z" fill="#FFCC4D"/>
<path d="M14.6173 8.48698C14.6173 8.48698 14.398 8.91919 13.6075 8.91919C12.8171 8.91919 12.5289 8.48698 12.5289 8.48698V4.35343C12.5289 2.35484 13.0844 1.03516 14.1808 0.431471C15.2302 -0.146143 16.6095 0.0323555 18.276 0.96797C19.6063 1.71305 22.8922 3.9483 22.9705 4.01047C22.9705 4.01047 23.1428 4.57705 22.6542 5.11355C22.1655 5.65005 21.6466 5.5618 21.6466 5.5618C21.6278 5.54777 18.4086 3.36467 17.2235 2.69881C16.3036 2.18236 15.5695 2.07406 15.2354 2.26158C14.9441 2.42203 14.6173 2.98962 14.6173 4.35343V8.48698Z" fill="#CCD6DD"/>
<path d="M17.1598 0.441134C15.9861 -0.00611576 14.9858 -0.0111298 14.1808 0.431106C13.3548 0.886378 12.8369 1.74879 12.6312 3.00028L14.6934 3.36831C14.8062 2.70245 15.0297 2.37654 15.2364 2.26222C15.4661 2.13286 15.8942 2.15693 16.433 2.34445L17.1598 0.441134Z" fill="#99AAB5"/>
<path d="M17.6787 11.0301H0.522081C0.234936 11.0301 0 10.8045 0 10.5287C0 10.253 0.234936 10.0273 0.522081 10.0273H17.6787C17.9658 10.0273 18.2008 10.253 18.2008 10.5287C18.2008 10.8045 17.9658 11.0301 17.6787 11.0301Z" fill="#FFE8B6"/>
<path d="M20.7872 7.81733L18.1392 10.8618C17.9691 11.0634 17.6474 11.0855 17.425 10.912C17.2016 10.7385 17.1588 10.4316 17.3279 10.2301L19.9759 7.18557C20.1461 6.98401 20.4677 6.96194 20.6901 7.13543C20.9136 7.30992 20.9564 7.61577 20.7872 7.81733Z" fill="#FFE8B6"/>
</svg>
