<svg width="22" height="32" viewBox="0 0 22 32" fill="none" xmlns="http://www.w3.org/2000/svg">
<path d="M4.08882 0.001L2.44456 3.736H0V7.095H0.935371L1.89308 13.07H0.397101L2.3755 24.043L3.64398 24.028L4.91958 32.001H16.9961L17.0804 31.47L18.2707 24.027L19.4772 24.042L21.4506 13.069H20.0216L20.9732 7.094H22V3.735H19.4031L17.7527 0L4.08882 0.001ZM4.8038 1.074H17.0489L18.0899 3.449H3.75469L4.8038 1.074ZM1.0806 4.804H20.9103V6.032H1.0806V4.804ZM1.69403 14.137H20.1607L18.5683 22.96L10.9147 22.881L3.28649 22.96L1.69403 14.137Z" fill="#D27C2C"/>
</svg>
