<svg width="30" height="30" viewBox="0 0 30 30" fill="none" xmlns="http://www.w3.org/2000/svg">
<path d="M14.9993 25.1328L7.72816 29.7191C7.40695 29.9331 7.07114 30.0248 6.72072 29.9943C6.37031 29.9637 6.0637 29.8414 5.80089 29.6274C5.53808 29.4133 5.33367 29.1455 5.18766 28.8239C5.04166 28.5022 5.01245 28.1432 5.10006 27.747L7.02733 19.0789L0.588478 13.2543C0.296466 12.9792 0.114251 12.6655 0.0418321 12.3132C-0.0305868 11.961 -0.00897807 11.6174 0.106659 11.2822C0.223463 10.9459 0.39867 10.6707 0.632279 10.4567C0.865889 10.2427 1.1871 10.1051 1.59592 10.044L10.0935 9.26429L13.3786 1.10071C13.5246 0.733805 13.7512 0.458628 14.0584 0.275177C14.3656 0.0917258 14.6792 0 14.9993 0C15.3205 0 15.6341 0.0917258 15.9401 0.275177C16.2461 0.458628 16.4727 0.733805 16.6199 1.10071L19.9051 9.26429L28.4026 10.044C28.8114 10.1051 29.1326 10.2427 29.3662 10.4567C29.5998 10.6707 29.775 10.9459 29.8918 11.2822C30.0087 11.6186 30.0308 11.9629 29.9584 12.3151C29.886 12.6673 29.7032 12.9804 29.41 13.2543L22.9712 19.0789L24.8984 27.747C24.9861 28.1445 24.9569 28.504 24.8108 28.8257C24.6648 29.1473 24.4604 29.4146 24.1976 29.6274C23.9348 29.8414 23.6282 29.9637 23.2778 29.9943C22.9274 30.0248 22.5916 29.9331 22.2703 29.7191L14.9993 25.1328Z" fill="#FFD233"/>
</svg>
