<svg width="28" height="30" viewBox="0 0 28 30" fill="none" xmlns="http://www.w3.org/2000/svg">
<path d="M28 11.0285C28 4.93238 22.9996 0 16.8195 0H11.1805C5.01121 0 0 4.93238 0 11.0285L5.08697 20.3167H22.913L28 11.0285Z" fill="#CA0B4A"/>
<path d="M14.644 1.71879H12.2412L11.5669 2.83552L11.6611 5.44584L9.48124 5.67965L8.86215 6.80598L9.52454 12.6458L8.2582 5.16719C8.21718 4.93542 8.08494 4.72905 7.8903 4.59306C7.69567 4.45707 7.45443 4.40249 7.21916 4.44121L4.84885 4.83623L4.29578 5.87182L8.18244 24.5551L10.5528 24.1601C10.6461 24.1438 10.7363 24.1132 10.8201 24.0693L10.9933 25.5896L14.0812 25.3024C14.579 25.249 14.9362 24.8113 14.8821 24.3202L14.8182 23.748L17.2632 24.0853C17.7611 24.1494 18.2157 23.8078 18.2806 23.3167L19.3879 14.953L18.9733 25.2597L21.3545 25.5693C21.8523 25.6334 22.3069 25.2917 22.3718 24.8006L24.7638 6.73659C24.7798 6.62017 24.7723 6.50179 24.7417 6.38825C24.7111 6.27472 24.6581 6.16826 24.5857 6.075C24.5133 5.98174 24.4229 5.90351 24.3197 5.84483C24.2165 5.78614 24.1026 5.74815 23.9845 5.73303L21.6034 5.42342L20.5535 6.1558L20.6726 5.2526C20.7025 5.01787 20.6375 4.78096 20.4916 4.59315C20.3458 4.40533 20.1308 4.28171 19.8933 4.24904L17.5122 3.93943L16.6073 4.70385L15.5423 12.8754V2.60491C15.5435 2.48823 15.521 2.37249 15.4763 2.26446C15.4316 2.15644 15.3654 2.0583 15.2818 1.97579C15.1981 1.89328 15.0986 1.82805 14.9891 1.78392C14.8796 1.73979 14.7623 1.71765 14.644 1.71879Z" fill="#FCD53F"/>
<path d="M11.7433 1.71875H12.2412V5.45861C12.1223 5.422 11.997 5.41001 11.8732 5.42338L10.8449 5.53334V2.60487C10.8449 2.11377 11.2454 1.71875 11.7433 1.71875ZM11.2454 21.5679L11.6892 25.5586L11.1913 25.612C11.0733 25.6249 10.9538 25.6146 10.8398 25.5819C10.7259 25.5491 10.6195 25.4944 10.527 25.421C10.4345 25.3476 10.3576 25.2569 10.3007 25.1541C10.2438 25.0513 10.2081 24.9384 10.1955 24.8219L8.1824 6.71519C8.12829 6.22409 8.48546 5.78637 8.98333 5.73298L9.48121 5.6796L11.2454 21.5679ZM4.83799 4.82551L4.35094 4.91092C4.11596 4.95276 3.90667 5.08307 3.76731 5.27433C3.62795 5.46559 3.56943 5.7028 3.60413 5.93583L6.64549 23.9038C6.73208 24.3842 7.19748 24.7152 7.68453 24.6405L8.1824 24.555L4.83799 4.82551ZM18.2806 23.3166C18.26 23.4741 18.1971 23.6234 18.0983 23.7488C17.9995 23.8742 17.8685 23.9712 17.7189 24.0298L17.6961 24.2027C17.6312 24.6938 17.9775 25.1422 18.4754 25.2063L18.9733 25.2703L21.6034 5.43405L21.1055 5.37C20.9513 5.34974 20.7944 5.36886 20.6498 5.42551L18.2806 23.3166ZM17.5013 3.93939L17.0034 3.87533C16.8854 3.85958 16.7654 3.867 16.6503 3.89715C16.5352 3.92731 16.4273 3.9796 16.3327 4.05103C16.2382 4.12247 16.1589 4.21163 16.0994 4.31339C16.0399 4.41516 16.0014 4.52752 15.986 4.64402L13.5941 22.7081C13.5291 23.1992 13.8755 23.6476 14.3734 23.7116L14.8712 23.7757L17.5013 3.93939Z" fill="#FFB02E"/>
<path d="M23.1079 11.0283C22.3503 11.0283 21.7225 11.5728 21.5926 12.3095C20.954 15.8753 17.8044 18.587 14.0055 18.587C10.2065 18.587 7.05686 15.8753 6.41829 12.3095C6.28841 11.5728 5.66065 11.0283 4.90302 11.0283H0.0108643L3.93974 28.0675C4.06587 28.6169 4.37789 29.1077 4.82445 29.4589C5.27101 29.8101 5.8255 30.0009 6.39664 29.9998H21.6143C22.794 29.9998 23.8114 29.1991 24.0712 28.0675L28 11.0283H23.1079Z" fill="#F8312F"/>
</svg>
