<svg width="30" height="30" viewBox="0 0 30 30" fill="none" xmlns="http://www.w3.org/2000/svg">
<g clip-path="url(#clip0_130_1130)">
<path d="M29.0625 20.8594C29.0625 26.4844 23.9531 29.0625 15.0938 29.0625C6.1875 29.0625 1.125 26.4844 1.125 20.8594C1.125 12.6094 29.0625 12.6094 29.0625 20.8594Z" fill="#E7A74F"/>
<path d="M28.9687 16.9687C28.9687 22.5937 23.9062 25.1719 15.0469 25.1719C6.23437 25.1719 1.125 22.5937 1.125 16.9687C1.17188 8.76563 28.9687 8.76563 28.9687 16.9687Z" fill="#BA8443"/>
<path d="M1.125 17.1094C1.125 14.7656 3.89063 11.5312 15.0938 11.5312C26.2969 11.5312 29.0625 14.8125 29.0625 17.1094C29.0625 21.375 25.125 24.4688 15.0938 24.4688C5.0625 24.4688 1.125 21.375 1.125 17.1094Z" fill="#826046"/>
<path d="M1.40625 14.6719C1.40625 12.3281 4.125 9.09375 15.0938 9.09375C26.0625 9.09375 28.7813 12.375 28.7813 14.6719C28.7813 18.9375 24.9375 22.0313 15.0938 22.0313C5.25 22.0313 1.40625 18.9375 1.40625 14.6719Z" fill="#68472C"/>
<path d="M1.50005 11.6252C2.1563 10.219 3.89068 10.1252 9.51568 12.5159C15.1407 14.9065 16.2188 16.1721 15.5626 17.6252C14.3438 20.2034 11.0157 22.1252 5.95318 19.969C0.890678 17.8127 0.234428 14.2502 1.50005 11.6252Z" fill="#EF4D3C"/>
<path d="M1.9688 10.0315C2.62505 8.62523 4.35943 8.53148 9.98443 10.9221C15.6094 13.3127 16.6876 14.5784 16.0313 16.0315C14.8126 18.6096 11.4844 20.5315 6.42193 18.3752C1.35943 16.219 0.703178 12.6096 1.9688 10.0315Z" fill="#D33B23"/>
<path d="M13.7344 16.1721C13.3594 14.6721 14.6719 13.5939 20.7188 12.2814C26.7656 10.9689 28.4063 11.3439 28.7813 12.8908C29.4844 15.6564 28.0781 19.0783 22.6406 20.2502C17.25 21.4221 14.3906 18.9377 13.7344 16.1721Z" fill="#EF4D3C"/>
<path d="M13.125 14.6721C12.75 13.1721 14.0625 12.0939 20.1094 10.7814C26.1563 9.46895 27.7969 9.84395 28.1719 11.3908C28.875 14.1564 27.4688 17.5783 22.0313 18.7502C16.6406 19.9221 13.8281 17.4377 13.125 14.6721Z" fill="#D33B23"/>
<path d="M4.54688 14.4844L13.9219 23.4844L23.1094 14.4844H4.54688Z" fill="#FFE62E"/>
<path d="M28.4531 12.1406C28.4531 12.1406 28.875 13.7344 28.4531 14.2031C28.0781 14.625 26.9063 14.1563 26.3906 14.5313C25.9219 14.8594 26.0625 16.125 25.5 16.4062C24.9844 16.6875 24 15.8906 23.4375 16.125C22.9219 16.3125 22.7344 17.5781 22.1719 17.7656C21.6094 17.9063 20.7656 16.9688 20.2031 17.0625C19.6406 17.1563 19.2656 18.375 18.6563 18.4688C18.0938 18.5625 17.3906 17.4844 16.7813 17.5313C16.2188 17.5781 15.6562 18.7031 15.0469 18.7031C14.4375 18.7031 13.9219 17.5313 13.3125 17.5313C12.7031 17.4844 12.0469 18.5625 11.4375 18.4688C10.8281 18.375 10.4531 17.2031 9.89062 17.0625C9.28125 16.9219 8.48437 17.9063 7.92187 17.7656C7.35937 17.5781 7.17187 16.3594 6.65625 16.125C6.09375 15.8906 5.0625 16.6875 4.59375 16.4062C4.03125 16.125 4.17188 14.8594 3.70313 14.5313C3.1875 14.1563 2.01562 14.625 1.64062 14.2031C1.21875 13.7344 1.64062 12.1406 1.64062 12.1406H28.4531Z" fill="#8CC63E"/>
<path d="M29.0625 10.9687C29.0625 14.0156 22.8281 15.5156 15.0938 15.5156C7.35938 15.5156 1.125 14.0156 1.125 10.9687C1.125 5.4375 7.35938 0.9375 15.0938 0.9375C22.8281 0.9375 29.0625 5.4375 29.0625 10.9687Z" fill="#E7A74F"/>
<path d="M7.64062 6.75L6.89062 7.45312L6.1875 6.75L6.89062 6.04687L7.64062 6.75ZM11.1094 5.625L10.4062 6.32813L9.70312 5.625L10.4062 4.92188L11.1094 5.625ZM13.125 8.8125L12.375 9.51562L11.6719 8.8125L12.375 8.10937L13.125 8.8125ZM15.5625 6.28125L15.0937 6.75L14.625 6.28125L15.0937 5.8125L15.5625 6.28125ZM24.3281 8.10937L23.8594 8.57812L23.3906 8.10937L23.8594 7.64062L24.3281 8.10937ZM27.2344 8.57812L26.7656 9.04687L26.2969 8.57812L26.7656 8.10937L27.2344 8.57812ZM21.75 5.15625L21.2812 5.625L20.8125 5.15625L21.2812 4.6875L21.75 5.15625ZM7.45312 4.54688L6.98437 5.01562L6.51562 4.54688L6.98437 4.07812L7.45312 4.54688ZM4.92187 6.75L4.45312 7.21875L3.98438 6.75L4.45312 6.28125L4.92187 6.75ZM7.875 9.89062L7.40625 10.3594L6.89062 9.89062L7.40625 9.42187L7.875 9.89062ZM13.3594 2.67187L12.8906 3.14062L12.375 2.67187L12.8906 2.20312L13.3594 2.67187ZM17.8125 2.20312L17.3437 2.67187L16.875 2.20312L17.3437 1.73438L17.8125 2.20312ZM10.4062 3.14062L9.9375 3.60937L9.46875 3.14062L9.9375 2.67187L10.4062 3.14062ZM23.8594 4.26563L23.3906 4.73438L22.9219 4.26563L23.3906 3.79688L23.8594 4.26563ZM18.75 10.1719L18.0469 10.875L17.3437 10.1719L18.0469 9.46875L18.75 10.1719ZM17.625 6.5625L16.9219 7.26563L16.2187 6.5625L16.9219 5.85938L17.625 6.5625ZM20.25 3.84375L19.5469 4.54688L18.8437 3.84375L19.5469 3.14062L20.25 3.84375ZM22.3125 6.89062L21.6094 7.59375L20.8594 6.89062L21.6094 6.1875L22.3125 6.89062ZM25.3125 5.85938L24.6094 6.5625L23.8594 5.85938L24.6094 5.15625L25.3125 5.85938ZM23.0156 9.98437L22.3125 10.6875L21.6094 9.98437L22.3125 9.28125L23.0156 9.98437ZM5.85937 8.76563L5.15625 9.46875L4.45312 8.76563L5.15625 8.0625L5.85937 8.76563Z" fill="#FFC17A"/>
</g>
<defs>
<clipPath id="clip0_130_1130">
<rect width="30" height="30" fill="white"/>
</clipPath>
</defs>
</svg>
