<svg width="78" height="78" viewBox="0 0 78 78" fill="none" xmlns="http://www.w3.org/2000/svg">
<path d="M50.4429 25.8756C50.4021 23.1007 50.345 17.4284 50.4429 16.9387C52.7689 11.3072 51.7896 13.6333 58.2781 7.26726C63.4688 2.17444 70.3164 1.63576 73.0913 2.00303C75.3358 1.92141 78.9921 4.37803 75.6622 14.8575C72.3323 25.3369 66.6845 28.773 64.2768 29.181L58.2781 30.1604H54.9726L53.626 31.5071L17.8783 75.4572C16.6541 75.9061 13.7159 76.5345 11.7571 75.4572C9.79834 74.3798 9.63511 70.6826 9.79834 68.9687L39.7921 38.2404L49.3411 29.181L50.4429 25.8756Z" fill="#F7E1CD"/>
<path d="M57.9805 31.0084L62.5634 30.718C62.5711 30.7174 62.5794 30.7168 62.5878 30.7162C65.8536 30.4407 68.7851 28.7298 70.6311 26.0209L74.254 20.7056C77.4074 16.0781 78.6291 10.489 77.693 4.96828C77.5092 3.88401 76.9545 2.88485 76.1321 2.15586C75.3091 1.42627 74.251 0.995423 73.1525 0.943055C67.5574 0.675262 62.1569 2.55874 57.9413 6.24416L53.0984 10.4783C50.6305 12.6355 49.2832 15.7508 49.4011 19.0268C49.4016 19.0345 49.4016 19.0429 49.4022 19.0512L49.6635 23.6352C49.7652 25.4223 49.1101 27.1855 47.8693 28.4698L10.0343 67.3378C9.0215 68.3941 8.49841 69.8431 8.56208 71.4183C8.6323 73.1524 9.42795 74.8556 10.6907 75.975C11.8315 76.986 13.3996 77.5621 14.9671 77.5621C15.1349 77.5621 15.3027 77.5555 15.4699 77.5419C17.0416 77.4163 18.418 76.7236 19.35 75.5846L53.3935 33.3721C54.5224 31.9832 56.1947 31.1215 57.9805 31.0084ZM51.5761 31.9011L17.5355 74.1099C17.0154 74.7455 16.2156 75.1371 15.2837 75.2115C14.175 75.3001 13.0384 74.9312 12.2421 74.2254C11.4459 73.519 10.9437 72.4348 10.899 71.3237C10.8609 70.39 11.1531 69.5491 11.7161 68.9624L49.548 30.0973C51.2441 28.3424 52.1367 25.9388 51.9986 23.5025L51.7374 18.9304C51.6487 16.3661 52.705 13.928 54.6373 12.2385L59.4802 8.00445C63.2388 4.71893 68.0555 3.04136 73.0412 3.27821C73.6089 3.30558 74.1552 3.52815 74.5807 3.90544C75.0062 4.28213 75.2924 4.79867 75.3876 5.35866C76.222 10.2807 75.1329 15.2628 72.3217 19.388L68.6988 24.704C67.2533 26.8249 64.9592 28.1657 62.4027 28.3853L57.8324 28.6745C55.3972 28.8292 53.118 30.0039 51.5761 31.9011Z" fill="#DF843E"/>
<path d="M75.8399 67.0425L50.4717 43.9368C49.9944 43.5018 49.2553 43.5363 48.8197 44.0136C48.3853 44.4909 48.4198 45.2306 48.8971 45.6656L74.2588 68.7659C74.8622 69.3235 75.2044 70.1453 75.2228 71.0796C75.2448 72.1913 74.8086 73.3035 74.0558 74.0563C73.3036 74.8085 72.1932 75.2459 71.0792 75.2233C70.1449 75.2048 69.323 74.8626 68.7714 74.2658L46.1662 49.448C45.7312 48.9701 44.9915 48.9362 44.5142 49.3706C44.0369 49.8056 44.0024 50.5453 44.4374 51.0226L67.048 75.8463C68.0418 76.9211 69.4569 77.5304 71.0333 77.5614C71.0744 77.562 71.1149 77.5626 71.1559 77.5626C72.8502 77.5626 74.5444 76.8752 75.709 75.71C76.9028 74.5163 77.5948 72.7685 77.5603 71.0338C77.5294 69.4574 76.9206 68.0423 75.8399 67.0425Z" fill="#DF843E"/>
<path d="M14.1084 30.7867C16.0436 32.5696 18.5579 33.586 21.1882 33.6491C21.1965 33.6497 21.2049 33.6497 21.2126 33.6497L25.8043 33.664C27.5944 33.6693 29.3148 34.4293 30.5222 35.745L32.545 37.9653C32.7759 38.2188 33.0919 38.3474 33.4096 38.3474C33.6905 38.3474 33.9726 38.2468 34.1963 38.0427C34.6742 37.6077 34.7087 36.868 34.2737 36.3907L32.248 34.1674C30.5984 32.369 28.2526 31.3336 25.8121 31.3253L21.2328 31.311C19.1982 31.2592 17.2529 30.4802 15.7455 29.1157L2.4386 13.2969C2.30292 13.135 2.31304 12.9006 2.4624 12.7512C2.56476 12.6483 2.68497 12.6334 2.74745 12.6334C2.80994 12.6334 2.93015 12.6483 3.0331 12.7512L15.1456 24.8643C16.343 26.0617 18.2913 26.0617 19.4886 24.8637L20.9121 23.4409V23.4403L23.4394 20.9129C23.4394 20.9129 23.44 20.9129 23.44 20.9123L23.4406 20.9117L24.8635 19.4889C26.0608 18.2915 26.0608 16.3432 24.8635 15.1459L12.751 3.03334C12.5939 2.87623 12.5939 2.61975 12.751 2.46264C12.9003 2.31327 13.1348 2.30316 13.2967 2.43884L29.1154 15.7463C30.4806 17.2531 31.2596 19.199 31.3113 21.2331L31.325 25.8129C31.3334 28.2528 32.3694 30.5986 34.1702 32.2518L36.3375 34.2257C36.8153 34.6608 37.5545 34.6262 37.9895 34.149C38.4239 33.6711 38.3894 32.932 37.9121 32.497L35.7483 30.526C34.429 29.3156 33.6697 27.5946 33.6637 25.8052L33.6495 21.2134C33.6495 21.2051 33.6495 21.1968 33.6489 21.1884C33.5858 18.5581 32.5694 16.0439 30.7865 14.1086C30.7531 14.0723 30.7174 14.0378 30.6793 14.0057L14.8017 0.649392C13.7043 -0.274193 12.1118 -0.205162 11.0978 0.808877C10.0284 1.87826 10.0284 3.61772 11.0978 4.6865L23.2103 16.7996C23.496 17.0853 23.496 17.55 23.2103 17.8357L22.6135 18.432L9.11376 4.93287C8.65732 4.47584 7.91703 4.47584 7.46059 4.93287C7.00416 5.38931 7.00416 6.1296 7.46059 6.58604L20.9603 20.0857L20.0855 20.9599L6.58581 7.46083C6.12937 7.00439 5.38907 7.00439 4.93264 7.46083C4.47561 7.91727 4.47561 8.65756 4.93264 9.114L18.4317 22.6137L17.8354 23.2106C17.5498 23.4962 17.085 23.4962 16.7994 23.2106L4.68627 11.098C4.16854 10.5803 3.48001 10.2947 2.74745 10.2947C2.01489 10.2947 1.32637 10.5803 0.808641 11.098C-0.205398 12.1121 -0.273833 13.7045 0.649156 14.8025L14.006 30.6796C14.0376 30.7177 14.0721 30.7534 14.1084 30.7867Z" fill="#DF843E"/>
</svg>
