<svg width="18" height="22" viewBox="0 0 18 22" fill="none" xmlns="http://www.w3.org/2000/svg">
<path d="M16.92 4H13.68V2.8C13.68 2.05739 13.4145 1.3452 12.9419 0.820101C12.4693 0.294999 11.8283 0 11.16 0H6.84C6.17165 0 5.53068 0.294999 5.05809 0.820101C4.5855 1.3452 4.32 2.05739 4.32 2.8V4H1.08C0.793566 4 0.518864 4.12643 0.316325 4.35147C0.113785 4.57652 0 4.88174 0 5.2C0 5.51826 0.113785 5.82348 0.316325 6.04853C0.518864 6.27357 0.793566 6.4 1.08 6.4H1.44V20C1.44 20.5304 1.62964 21.0391 1.96721 21.4142C2.30477 21.7893 2.76261 22 3.24 22H14.76C15.2374 22 15.6952 21.7893 16.0328 21.4142C16.3704 21.0391 16.56 20.5304 16.56 20V6.4H16.92C17.2064 6.4 17.4811 6.27357 17.6837 6.04853C17.8862 5.82348 18 5.51826 18 5.2C18 4.88174 17.8862 4.57652 17.6837 4.35147C17.4811 4.12643 17.2064 4 16.92 4ZM6.48 2.8C6.48 2.69391 6.51793 2.59217 6.58544 2.51716C6.65295 2.44214 6.74452 2.4 6.84 2.4H11.16C11.2555 2.4 11.347 2.44214 11.4146 2.51716C11.4821 2.59217 11.52 2.69391 11.52 2.8V4H6.48V2.8ZM14.4 19.6H3.6V6.4H14.4V19.6ZM7.92 9.6V16C7.92 16.3183 7.80622 16.6235 7.60368 16.8485C7.40114 17.0736 7.12643 17.2 6.84 17.2C6.55357 17.2 6.27886 17.0736 6.07632 16.8485C5.87379 16.6235 5.76 16.3183 5.76 16V9.6C5.76 9.28174 5.87379 8.97652 6.07632 8.75147C6.27886 8.52643 6.55357 8.4 6.84 8.4C7.12643 8.4 7.40114 8.52643 7.60368 8.75147C7.80622 8.97652 7.92 9.28174 7.92 9.6ZM12.24 9.6V16C12.24 16.3183 12.1262 16.6235 11.9237 16.8485C11.7211 17.0736 11.4464 17.2 11.16 17.2C10.8736 17.2 10.5989 17.0736 10.3963 16.8485C10.1938 16.6235 10.08 16.3183 10.08 16V9.6C10.08 9.28174 10.1938 8.97652 10.3963 8.75147C10.5989 8.52643 10.8736 8.4 11.16 8.4C11.4464 8.4 11.7211 8.52643 11.9237 8.75147C12.1262 8.97652 12.24 9.28174 12.24 9.6Z" fill="#DF843E"/>
</svg>
