<svg width="32" height="33" viewBox="0 0 32 33" fill="none" xmlns="http://www.w3.org/2000/svg">
<path d="M10.6667 17.7777V6.44434C10.6667 5.9139 10.8775 5.4052 11.2525 5.03012C11.6276 4.65505 12.1363 4.44434 12.6667 4.44434C13.1972 4.44434 13.7059 4.65505 14.081 5.03012C14.456 5.4052 14.6667 5.9139 14.6667 6.44434V16.4443M14.6667 15.7777V13.111C14.6667 12.8484 14.7185 12.5883 14.819 12.3456C14.9195 12.103 15.0668 11.8825 15.2525 11.6968C15.4383 11.5111 15.6587 11.3638 15.9014 11.2632C16.144 11.1627 16.4041 11.111 16.6667 11.111C16.9294 11.111 17.1895 11.1627 17.4321 11.2632C17.6748 11.3638 17.8952 11.5111 18.081 11.6968C18.2667 11.8825 18.414 12.103 18.5145 12.3456C18.615 12.5883 18.6667 12.8484 18.6667 13.111V16.4443M18.6667 14.4443C18.6667 13.9139 18.8775 13.4052 19.2525 13.0301C19.6276 12.655 20.1363 12.4443 20.6667 12.4443C21.1972 12.4443 21.7059 12.655 22.081 13.0301C22.456 13.4052 22.6667 13.9139 22.6667 14.4443V16.4443" stroke="white" stroke-width="2" stroke-linecap="round" stroke-linejoin="round"/>
<path d="M22.6667 15.7777C22.6667 15.2472 22.8774 14.7385 23.2525 14.3635C23.6275 13.9884 24.1362 13.7777 24.6667 13.7777C25.1971 13.7777 25.7058 13.9884 26.0809 14.3635C26.456 14.7385 26.6667 15.2472 26.6667 15.7777V21.7777C26.6667 23.8994 25.8238 25.9342 24.3235 27.4345C22.8232 28.9348 20.7884 29.7777 18.6667 29.7777H16H16.2773C14.9524 29.7779 13.6482 29.4491 12.4818 28.8207C11.3154 28.1924 10.3234 27.2842 9.59467 26.1777C9.50721 26.0446 9.4201 25.9112 9.33333 25.7777C8.91733 25.139 7.45733 22.5937 4.952 18.1403C4.6966 17.6864 4.62838 17.1507 4.76184 16.6472C4.89531 16.1437 5.21993 15.7122 5.66667 15.4443C6.1425 15.1588 6.7001 15.0405 7.25088 15.1081C7.80166 15.1758 8.31405 15.4255 8.70667 15.8177L10.6667 17.7777" stroke="white" stroke-width="2" stroke-linecap="round" stroke-linejoin="round"/>
</svg>
